<svg xmlns="http://www.w3.org/2000/svg" viewBox="0 0 300 50">
  <!-- Happy -->
  <circle cx="25" cy="25" r="20" fill="#4CAF50"/>
  <path d="M15,25 Q25,35 35,25" stroke="white" stroke-width="2" fill="none"/>
  <circle cx="18" cy="18" r="3" fill="white"/>
  <circle cx="32" cy="18" r="3" fill="white"/>
  
  <!-- Calm -->
  <circle cx="75" cy="25" r="20" fill="#2196F3"/>
  <path d="M65,25 L85,25" stroke="white" stroke-width="2" fill="none"/>
  <circle cx="68" cy="18" r="3" fill="white"/>
  <circle cx="82" cy="18" r="3" fill="white"/>
  
  <!-- Neutral -->
  <circle cx="125" cy="25" r="20" fill="#9E9E9E"/>
  <path d="M115,25 L135,25" stroke="white" stroke-width="2" fill="none"/>
  <circle cx="118" cy="18" r="3" fill="white"/>
  <circle cx="132" cy="18" r="3" fill="white"/>
  
  <!-- Anxious -->
  <circle cx="175" cy="25" r="20" fill="#FFC107"/>
  <path d="M165,28 L185,28" stroke="white" stroke-width="2" fill="none"/>
  <circle cx="168" cy="18" r="3" fill="white"/>
  <circle cx="182" cy="18" r="3" fill="white"/>
  
  <!-- Sad -->
  <circle cx="225" cy="25" r="20" fill="#2196F3"/>
  <path d="M215,30 Q225,25 235,30" stroke="white" stroke-width="2" fill="none"/>
  <circle cx="218" cy="18" r="3" fill="white"/>
  <circle cx="232" cy="18" r="3" fill="white"/>
  
  <!-- Angry -->
  <circle cx="275" cy="25" r="20" fill="#F44336"/>
  <path d="M265,28 L285,28" stroke="white" stroke-width="2" fill="none"/>
  <path d="M268,18 L275,21" stroke="white" stroke-width="2" fill="none"/>
  <path d="M282,18 L275,21" stroke="white" stroke-width="2" fill="none"/>
</svg>
